<svg width="173" height="43" viewBox="0 0 173 43" fill="none" xmlns="http://www.w3.org/2000/svg">
<g clip-path="url(#clip0_15_85)">
<path d="M22.3974 0V4.73963C20.5154 4.73963 19.047 4.92634 17.9923 5.29977C16.9376 5.65882 16.4826 6.38412 16.6274 7.47569L17.589 13.8311C17.8372 15.4397 17.5787 16.7395 16.8135 17.7305C16.069 18.7215 14.9212 19.4828 13.3701 20.0142C11.8398 20.5312 10.0302 20.8975 7.94142 21.1128C10.1543 21.3426 12.0259 21.7161 13.5563 22.2332C15.0867 22.7501 16.2034 23.497 16.9066 24.4737C17.6097 25.4504 17.8372 26.7574 17.589 28.3947L16.6274 34.7501C16.4826 35.8416 16.9376 36.5669 17.9923 36.926C19.047 37.2993 20.5154 37.4861 22.3974 37.4861V42.2258C16.6894 42.2258 12.6773 41.6225 10.3611 40.4161C8.06552 39.224 7.13487 37.1774 7.56917 34.2761L8.49982 28.1146C8.66526 27.0231 8.39641 26.1685 7.69327 25.5509C7.01079 24.9333 5.99743 24.5024 4.65317 24.2582C3.30892 23.9998 1.75787 23.8705 0 23.8705V18.3552C1.73719 18.3552 3.27791 18.2331 4.62217 17.989C5.96642 17.7305 6.99012 17.2925 7.69327 16.6749C8.39641 16.0573 8.66526 15.2027 8.49982 14.1112L7.56917 7.99272C7.1142 5.03405 8.04483 2.96585 10.3611 1.78813C12.6773 0.596043 16.6894 0 22.3974 0Z" fill="url(#paint0_linear_15_85)"/>
<path d="M150.603 0C156.311 0 160.312 0.596043 162.608 1.78813C164.924 2.98022 165.865 5.03405 165.431 7.94964L164.5 14.1112C164.335 15.2027 164.604 16.0573 165.307 16.6749C166.01 17.2925 167.023 17.7305 168.347 17.989C169.691 18.2331 171.242 18.3552 173 18.3552V23.8705C171.263 23.8705 169.722 23.9998 168.378 24.2582C167.034 24.5024 166.01 24.9333 165.307 25.5509C164.604 26.1685 164.335 27.0231 164.5 28.1146L165.431 34.233C165.907 37.1774 164.976 39.2456 162.639 40.4376C160.323 41.6298 156.311 42.2258 150.603 42.2258V37.4861C152.505 37.4861 153.984 37.2993 155.039 36.926C156.094 36.5669 156.538 35.8416 156.373 34.7501L155.411 28.3947C155.163 26.7717 155.411 25.4718 156.156 24.4953C156.921 23.5042 158.079 22.7501 159.63 22.2332C161.181 21.7017 163.001 21.3283 165.09 21.1128C162.877 20.883 160.995 20.5097 159.444 19.9926C157.913 19.4755 156.797 18.7288 156.094 17.7521C155.39 16.7611 155.163 15.4541 155.411 13.8311L156.373 7.47569C156.538 6.38412 156.083 5.65882 155.008 5.29977C153.953 4.92634 152.485 4.73963 150.603 4.73963V0Z" fill="#EEAECA"/>
<path d="M27.05 21.4491C27.05 19.3891 27.51 17.5491 28.43 15.9291C29.37 14.2891 30.64 13.0191 32.24 12.1191C33.86 11.1991 35.67 10.7391 37.67 10.7391C40.01 10.7391 42.06 11.3391 43.82 12.5391C45.58 13.7391 46.81 15.3991 47.51 17.5191H42.68C42.2 16.5191 41.52 15.7691 40.64 15.2691C39.78 14.7691 38.78 14.5191 37.64 14.5191C36.42 14.5191 35.33 14.8091 34.37 15.3891C33.43 15.9491 32.69 16.7491 32.15 17.7891C31.63 18.8291 31.37 20.0491 31.37 21.4491C31.37 22.8291 31.63 24.0491 32.15 25.1091C32.69 26.1491 33.43 26.9591 34.37 27.5392C35.33 28.0992 36.42 28.3792 37.64 28.3792C38.78 28.3792 39.78 28.1291 40.64 27.6291C41.52 27.1091 42.2 26.3491 42.68 25.3491H47.51C46.81 27.4891 45.58 29.1591 43.82 30.3591C42.08 31.5392 40.03 32.1292 37.67 32.1292C35.67 32.1292 33.86 31.6792 32.24 30.7792C30.64 29.8592 29.37 28.5891 28.43 26.9691C27.51 25.3491 27.05 23.5091 27.05 21.4491ZM60.4573 15.0891C61.7173 15.0891 62.8373 15.3691 63.8173 15.9291C64.7973 16.4691 65.5573 17.2791 66.0973 18.3591C66.6573 19.4191 66.9373 20.6991 66.9373 22.1991V31.9492H62.7373V22.7691C62.7373 21.4491 62.4073 20.4391 61.7473 19.7391C61.0873 19.0191 60.1873 18.6591 59.0473 18.6591C57.8873 18.6591 56.9673 19.0191 56.2873 19.7391C55.6273 20.4391 55.2973 21.4491 55.2973 22.7691V31.9492H51.0973V9.74915H55.2973V17.3991C55.8373 16.6791 56.5573 16.1191 57.4573 15.7191C58.3573 15.2991 59.3573 15.0891 60.4573 15.0891ZM69.8513 23.5791C69.8513 21.8991 70.1813 20.4091 70.8413 19.1091C71.5213 17.8091 72.4313 16.8091 73.5713 16.1092C74.7313 15.4091 76.0213 15.0591 77.4413 15.0591C78.6813 15.0591 79.7613 15.3091 80.6813 15.8091C81.6213 16.3091 82.3713 16.9391 82.9313 17.6991V15.3291H87.1613V31.9492H82.9313V29.5192C82.3913 30.2992 81.6413 30.9492 80.6813 31.4692C79.7413 31.9692 78.6513 32.2192 77.4113 32.2192C76.0113 32.2192 74.7313 31.8592 73.5713 31.1392C72.4313 30.4192 71.5213 29.4092 70.8413 28.1091C70.1813 26.7891 69.8513 25.2791 69.8513 23.5791ZM82.9313 23.6391C82.9313 22.6191 82.7313 21.7491 82.3313 21.0291C81.9313 20.2891 81.3913 19.7291 80.7113 19.3491C80.0313 18.9491 79.3013 18.7491 78.5213 18.7491C77.7413 18.7491 77.0213 18.9391 76.3613 19.3191C75.7013 19.6991 75.1613 20.2591 74.7413 20.9991C74.3413 21.7191 74.1413 22.5791 74.1413 23.5791C74.1413 24.5791 74.3413 25.4591 74.7413 26.2191C75.1613 26.9591 75.7013 27.5291 76.3613 27.9291C77.0413 28.3291 77.7613 28.5291 78.5213 28.5291C79.3013 28.5291 80.0313 28.3391 80.7113 27.9592C81.3913 27.5591 81.9313 26.9991 82.3313 26.2791C82.7313 25.5391 82.9313 24.6591 82.9313 23.6391ZM93.3934 13.3491C92.6534 13.3491 92.0334 13.1191 91.5334 12.6591C91.0534 12.1791 90.8134 11.5891 90.8134 10.8891C90.8134 10.1891 91.0534 9.60915 91.5334 9.14915C92.0334 8.66915 92.6534 8.42915 93.3934 8.42915C94.1334 8.42915 94.7434 8.66915 95.2234 9.14915C95.7234 9.60915 95.9734 10.1891 95.9734 10.8891C95.9734 11.5891 95.7234 12.1791 95.2234 12.6591C94.7434 13.1191 94.1334 13.3491 93.3934 13.3491ZM95.4634 15.3291V31.9492H91.2634V15.3291H95.4634ZM103.813 9.74915V31.9492H99.613V9.74915H103.813ZM106.883 23.5791C106.883 21.8991 107.213 20.4091 107.873 19.1091C108.553 17.8091 109.463 16.8091 110.603 16.1092C111.763 15.4091 113.053 15.0591 114.473 15.0591C115.713 15.0591 116.793 15.3091 117.713 15.8091C118.653 16.3091 119.403 16.9391 119.963 17.6991V15.3291H124.193V31.9492H119.963V29.5192C119.423 30.2992 118.673 30.9492 117.713 31.4692C116.773 31.9692 115.683 32.2192 114.443 32.2192C113.043 32.2192 111.763 31.8592 110.603 31.1392C109.463 30.4192 108.553 29.4092 107.873 28.1091C107.213 26.7891 106.883 25.2791 106.883 23.5791ZM119.963 23.6391C119.963 22.6191 119.763 21.7491 119.363 21.0291C118.963 20.2891 118.423 19.7291 117.743 19.3491C117.063 18.9491 116.333 18.7491 115.553 18.7491C114.773 18.7491 114.053 18.9391 113.393 19.3191C112.733 19.6991 112.193 20.2591 111.773 20.9991C111.373 21.7191 111.173 22.5791 111.173 23.5791C111.173 24.5791 111.373 25.4591 111.773 26.2191C112.193 26.9591 112.733 27.5291 113.393 27.9291C114.073 28.3291 114.793 28.5291 115.553 28.5291C116.333 28.5291 117.063 28.3391 117.743 27.9592C118.423 27.5591 118.963 26.9991 119.363 26.2791C119.763 25.5391 119.963 24.6591 119.963 23.6391ZM134.655 32.2192C133.295 32.2192 132.075 31.9792 130.995 31.4992C129.915 30.9992 129.055 30.3292 128.415 29.4892C127.795 28.6491 127.455 27.7191 127.395 26.6991H131.625C131.705 27.3391 132.015 27.8691 132.555 28.2891C133.115 28.7091 133.805 28.9191 134.625 28.9191C135.425 28.9191 136.045 28.7591 136.485 28.4391C136.945 28.1191 137.175 27.7091 137.175 27.2091C137.175 26.6691 136.895 26.2691 136.335 26.0091C135.795 25.7291 134.925 25.4291 133.725 25.1091C132.485 24.8091 131.465 24.4991 130.665 24.1791C129.885 23.8591 129.205 23.3691 128.625 22.7091C128.065 22.0491 127.785 21.1591 127.785 20.0391C127.785 19.1191 128.045 18.2791 128.565 17.5191C129.105 16.7591 129.865 16.1591 130.845 15.7191C131.845 15.2791 133.015 15.0591 134.355 15.0591C136.335 15.0591 137.915 15.5591 139.095 16.5591C140.275 17.5391 140.925 18.8691 141.045 20.5491H137.025C136.965 19.8891 136.685 19.3691 136.185 18.9891C135.705 18.5891 135.055 18.3891 134.235 18.3891C133.475 18.3891 132.885 18.5291 132.465 18.8091C132.065 19.0891 131.865 19.4791 131.865 19.9791C131.865 20.5391 132.145 20.9691 132.705 21.2691C133.265 21.5491 134.135 21.8391 135.315 22.1391C136.515 22.4391 137.505 22.7491 138.285 23.0691C139.065 23.3892 139.735 23.8891 140.295 24.5691C140.875 25.2291 141.175 26.1091 141.195 27.2091C141.195 28.1691 140.925 29.0291 140.385 29.7891C139.865 30.5492 139.105 31.1492 138.105 31.5892C137.125 32.0092 135.975 32.2192 134.655 32.2192Z" fill="#42446E"/>
</g>
<defs>
<linearGradient id="paint0_linear_15_85" x1="-3.65628" y1="45.4764" x2="158.836" y2="-37.3467" gradientUnits="userSpaceOnUse">
<stop stop-color="#F093FB"/>
<stop offset="1" stop-color="#DE78C1"/>
</linearGradient>
<clipPath id="clip0_15_85">
<rect width="173" height="43" fill="white"/>
</clipPath>
</defs>
</svg>
